<?xml version="1.0" encoding="utf-8"?>
<!-- Generator: Adobe Illustrator 21.1.0, SVG Export Plug-In . SVG Version: 6.00 Build 0)  -->
<!DOCTYPE svg PUBLIC "-//W3C//DTD SVG 1.0//EN" "http://www.w3.org/TR/2001/REC-SVG-20010904/DTD/svg10.dtd">
<svg version="1.0" id="Calque_5" xmlns="http://www.w3.org/2000/svg" xmlns:xlink="http://www.w3.org/1999/xlink" x="0px" y="0px"
	 viewBox="0 0 766 287.33" enable-background="new 0 0 766 287.33" xml:space="preserve">
<g>
	<g>
		<path fill="#8A4A04" d="M78.01,158.88c0.05-0.17,0.09-0.33,0.16-0.48c0.03-0.07,0.07-0.13,0.11-0.19c0.08-0.15,0.17-0.3,0.27-0.44
			c0.05-0.07,0.12-0.14,0.18-0.21c0.1-0.11,0.2-0.22,0.31-0.31c0.07-0.06,0.14-0.12,0.22-0.18c0.12-0.09,0.25-0.17,0.38-0.24
			c0.08-0.04,0.16-0.09,0.24-0.13c0.15-0.07,0.31-0.12,0.47-0.17c0.08-0.02,0.15-0.05,0.23-0.07c0.24-0.05,0.5-0.09,0.76-0.09h11.85
			c7.42,0,11.75,5.33,11.75,10.96v-8.68c0-5.64-4.33-10.96-11.75-10.96H81.34c-0.26,0-0.51,0.03-0.76,0.09
			c-0.08,0.02-0.15,0.05-0.23,0.07c-0.16,0.05-0.32,0.1-0.47,0.17c-0.08,0.04-0.16,0.09-0.24,0.13c-0.13,0.07-0.26,0.15-0.38,0.24
			c-0.08,0.06-0.15,0.12-0.22,0.18c-0.11,0.1-0.21,0.2-0.31,0.31c-0.04,0.04-0.09,0.08-0.12,0.12c-0.02,0.03-0.03,0.06-0.05,0.09
			c-0.1,0.14-0.19,0.29-0.27,0.44c-0.03,0.05-0.07,0.09-0.09,0.15c-0.01,0.01-0.01,0.03-0.02,0.05c-0.07,0.15-0.12,0.32-0.16,0.48
			c-0.02,0.06-0.04,0.11-0.06,0.17c0,0.01,0,0.01,0,0.02c-0.05,0.23-0.08,0.47-0.08,0.71v8.68c0-0.24,0.03-0.48,0.08-0.71
			C77.96,159,77.99,158.95,78.01,158.88z"/>
		<path fill="#8A4A04" d="M131.58,172.78c0.06-0.38,0.11-0.75,0.15-1.13c0.03-0.23,0.06-0.46,0.08-0.68
			c0.04-0.41,0.07-0.82,0.1-1.23c0.01-0.2,0.03-0.39,0.04-0.59c0.03-0.61,0.05-1.21,0.05-1.82v-8.68c0,0.61-0.02,1.22-0.05,1.82
			c-0.01,0.2-0.03,0.39-0.04,0.59c-0.03,0.41-0.06,0.82-0.1,1.23c-0.02,0.23-0.05,0.46-0.08,0.68c-0.05,0.38-0.1,0.75-0.15,1.13
			c-0.04,0.23-0.07,0.47-0.11,0.7c-0.07,0.37-0.14,0.75-0.21,1.12c-0.05,0.22-0.09,0.45-0.14,0.67c-0.09,0.38-0.19,0.77-0.29,1.15
			c-0.05,0.2-0.1,0.4-0.15,0.59c-0.14,0.5-0.29,0.99-0.45,1.48c-0.03,0.08-0.05,0.15-0.07,0.23c-0.19,0.56-0.4,1.12-0.62,1.68
			c-0.07,0.17-0.14,0.33-0.21,0.49c-0.16,0.39-0.32,0.77-0.5,1.15c-0.09,0.2-0.19,0.39-0.28,0.59c-0.17,0.35-0.35,0.71-0.53,1.06
			c-0.11,0.21-0.22,0.41-0.33,0.62c-0.19,0.34-0.38,0.67-0.58,1.01c-0.12,0.2-0.24,0.39-0.36,0.59c-0.22,0.35-0.45,0.7-0.68,1.04
			c-0.11,0.16-0.22,0.33-0.33,0.49c-0.34,0.48-0.7,0.96-1.06,1.43c-0.01,0.02-0.02,0.03-0.04,0.05c-0.37,0.47-0.76,0.92-1.16,1.37
			c-0.13,0.15-0.27,0.29-0.4,0.43c-0.28,0.3-0.55,0.6-0.84,0.89c-0.16,0.17-0.34,0.33-0.51,0.49c-0.27,0.26-0.54,0.52-0.82,0.77
			c-0.19,0.17-0.38,0.33-0.57,0.5c-0.28,0.24-0.56,0.47-0.84,0.7c-0.2,0.16-0.4,0.32-0.61,0.48c-0.29,0.23-0.59,0.45-0.89,0.66
			c-0.21,0.15-0.42,0.3-0.63,0.45c-0.32,0.22-0.64,0.43-0.97,0.64c-0.21,0.13-0.42,0.27-0.63,0.4c-0.36,0.22-0.74,0.43-1.12,0.64
			c-0.19,0.1-0.37,0.21-0.56,0.31c-0.56,0.3-1.13,0.58-1.71,0.86c-0.01,0.01-0.03,0.01-0.04,0.02c-0.6,0.28-1.21,0.54-1.83,0.79
			c-0.2,0.08-0.41,0.15-0.62,0.23c-0.43,0.16-0.86,0.32-1.29,0.47c-0.25,0.09-0.51,0.16-0.77,0.24c-0.41,0.13-0.81,0.25-1.23,0.37
			c-0.28,0.08-0.56,0.15-0.84,0.22c-0.41,0.1-0.82,0.2-1.24,0.3c-0.29,0.07-0.59,0.13-0.88,0.19c-0.42,0.08-0.85,0.16-1.29,0.24
			c-0.3,0.05-0.6,0.1-0.9,0.15c-0.45,0.07-0.91,0.12-1.37,0.18c-0.3,0.03-0.59,0.07-0.89,0.1c-0.51,0.05-1.04,0.08-1.56,0.12
			c-0.26,0.02-0.51,0.04-0.77,0.05c-0.79,0.04-1.59,0.06-2.41,0.06H81.34c-0.26,0-0.51,0.03-0.76,0.09
			c-0.08,0.02-0.15,0.05-0.23,0.07c-0.16,0.05-0.32,0.1-0.47,0.17c-0.08,0.04-0.16,0.09-0.24,0.13c-0.13,0.07-0.26,0.15-0.38,0.24
			c-0.08,0.06-0.15,0.12-0.22,0.18c-0.11,0.1-0.21,0.2-0.31,0.31c-0.04,0.04-0.09,0.08-0.12,0.12c-0.02,0.03-0.03,0.06-0.05,0.09
			c-0.1,0.14-0.19,0.29-0.27,0.44c-0.03,0.05-0.07,0.09-0.09,0.15c-0.01,0.01-0.01,0.03-0.02,0.05c-0.07,0.15-0.12,0.32-0.16,0.48
			c-0.02,0.06-0.04,0.11-0.06,0.17c0,0.01,0,0.01,0,0.02c-0.05,0.23-0.08,0.47-0.08,0.71v8.68c0-0.24,0.03-0.48,0.08-0.71
			c0.01-0.06,0.04-0.12,0.06-0.19c0.05-0.17,0.09-0.33,0.16-0.48c0.03-0.07,0.07-0.13,0.11-0.19c0.08-0.15,0.17-0.3,0.27-0.44
			c0.05-0.07,0.12-0.14,0.18-0.21c0.1-0.11,0.2-0.22,0.31-0.31c0.07-0.06,0.14-0.12,0.22-0.18c0.12-0.09,0.25-0.17,0.38-0.24
			c0.08-0.04,0.16-0.09,0.24-0.13c0.15-0.07,0.31-0.12,0.47-0.17c0.08-0.02,0.15-0.05,0.23-0.07c0.24-0.05,0.5-0.09,0.76-0.09h13.09
			c0.82,0,1.62-0.02,2.41-0.06c0.26-0.01,0.51-0.04,0.77-0.05c0.52-0.03,1.05-0.07,1.56-0.12c0.3-0.03,0.59-0.07,0.89-0.1
			c0.46-0.05,0.92-0.11,1.37-0.18c0.3-0.04,0.6-0.1,0.9-0.15c0.43-0.07,0.86-0.15,1.29-0.24c0.3-0.06,0.59-0.12,0.88-0.19
			c0.42-0.09,0.83-0.19,1.24-0.3c0.28-0.07,0.56-0.14,0.84-0.22c0.42-0.12,0.82-0.24,1.23-0.37c0.26-0.08,0.52-0.16,0.77-0.24
			c0.44-0.15,0.87-0.31,1.29-0.47c0.21-0.08,0.42-0.15,0.62-0.23c0.62-0.25,1.24-0.51,1.83-0.79c0.01-0.01,0.03-0.01,0.04-0.02
			c0.58-0.27,1.15-0.56,1.71-0.86c0.19-0.1,0.37-0.21,0.56-0.31c0.38-0.21,0.75-0.42,1.12-0.64c0.21-0.13,0.42-0.26,0.63-0.4
			c0.33-0.21,0.65-0.42,0.97-0.64c0.21-0.15,0.42-0.3,0.63-0.45c0.3-0.22,0.6-0.44,0.89-0.66c0.2-0.16,0.41-0.32,0.61-0.48
			c0.29-0.23,0.57-0.47,0.84-0.71c0.19-0.16,0.38-0.33,0.57-0.5c0.28-0.25,0.55-0.51,0.82-0.77c0.17-0.16,0.34-0.32,0.51-0.49
			c0.29-0.29,0.57-0.59,0.84-0.89c0.13-0.14,0.27-0.28,0.4-0.43c0.4-0.45,0.79-0.91,1.16-1.38c0,0,0,0,0,0
			c0.01-0.01,0.02-0.03,0.03-0.04c0.37-0.47,0.73-0.95,1.07-1.43c0.12-0.16,0.22-0.33,0.34-0.5c0.23-0.34,0.46-0.69,0.68-1.04
			c0.12-0.2,0.24-0.39,0.36-0.59c0.2-0.33,0.39-0.67,0.58-1c0.11-0.2,0.22-0.41,0.33-0.62c0.18-0.35,0.36-0.7,0.53-1.06
			c0.07-0.13,0.14-0.27,0.2-0.4c0.03-0.06,0.05-0.13,0.08-0.19c0.17-0.38,0.34-0.77,0.5-1.15c0.07-0.17,0.14-0.33,0.21-0.5
			c0.22-0.55,0.43-1.11,0.62-1.68c0.03-0.08,0.05-0.15,0.07-0.23c0.16-0.49,0.31-0.98,0.45-1.48c0.06-0.2,0.1-0.4,0.15-0.59
			c0.1-0.38,0.2-0.76,0.29-1.15c0.02-0.08,0.04-0.16,0.06-0.24c0.03-0.14,0.05-0.29,0.08-0.43c0.08-0.37,0.15-0.74,0.21-1.12
			C131.51,173.25,131.55,173.01,131.58,172.78z"/>
		<path fill="#8A4A04" d="M77.74,229.7c-0.05,0.17-0.1,0.33-0.17,0.49c-0.03,0.07-0.07,0.12-0.1,0.19
			c-0.08,0.16-0.17,0.31-0.28,0.45c-0.05,0.07-0.12,0.14-0.18,0.21c-0.1,0.11-0.2,0.22-0.31,0.31c-0.07,0.06-0.14,0.12-0.22,0.18
			c-0.12,0.09-0.25,0.17-0.38,0.24c-0.08,0.04-0.16,0.09-0.24,0.13c-0.15,0.07-0.31,0.12-0.47,0.17c-0.08,0.02-0.15,0.05-0.23,0.07
			c-0.24,0.05-0.5,0.09-0.76,0.09H54.26c-1.91,0-3.46-1.52-3.46-3.4v8.68c0,1.88,1.55,3.4,3.46,3.4h20.14
			c0.26,0,0.51-0.03,0.76-0.09c0.08-0.02,0.15-0.05,0.23-0.07c0.16-0.05,0.32-0.1,0.47-0.17c0.09-0.04,0.16-0.09,0.24-0.13
			c0.13-0.07,0.26-0.15,0.38-0.24c0.08-0.06,0.15-0.12,0.22-0.18c0.11-0.1,0.21-0.2,0.31-0.31c0.04-0.04,0.09-0.08,0.12-0.12
			c0.02-0.03,0.03-0.06,0.05-0.09c0.1-0.14,0.19-0.29,0.28-0.45c0.03-0.05,0.06-0.09,0.09-0.14c0.01-0.01,0.01-0.03,0.02-0.04
			c0.07-0.16,0.12-0.32,0.17-0.49c0.02-0.06,0.04-0.1,0.05-0.16c0-0.01,0-0.01,0-0.02c0.05-0.23,0.08-0.46,0.08-0.7v-8.68
			c0,0.24-0.03,0.48-0.08,0.7C77.78,229.58,77.75,229.64,77.74,229.7z"/>
	</g>
	<g>
		<path fill="#842A4E" d="M174.97,158.46c0.04-0.14,0.08-0.27,0.14-0.4c0.02-0.06,0.06-0.11,0.09-0.16
			c0.07-0.13,0.14-0.25,0.23-0.37c0.05-0.06,0.1-0.12,0.15-0.17c0.08-0.09,0.17-0.18,0.26-0.26c0.06-0.05,0.12-0.1,0.18-0.15
			c0.1-0.07,0.21-0.14,0.32-0.2c0.07-0.04,0.13-0.08,0.2-0.11c0.12-0.06,0.26-0.1,0.39-0.14c0.06-0.02,0.13-0.04,0.19-0.06
			c0.2-0.04,0.41-0.07,0.63-0.07h12.43c7.42,0,11.75,5.33,11.75,10.96v-8.68c0-5.64-4.33-10.96-11.75-10.96h-12.43
			c-0.22,0-0.43,0.03-0.63,0.07c-0.07,0.01-0.13,0.04-0.19,0.06c-0.13,0.04-0.26,0.08-0.39,0.14c-0.07,0.03-0.14,0.07-0.2,0.11
			c-0.11,0.06-0.22,0.13-0.32,0.2c-0.06,0.05-0.12,0.1-0.18,0.15c-0.09,0.08-0.18,0.17-0.26,0.26c-0.03,0.04-0.07,0.06-0.1,0.1
			c-0.02,0.02-0.03,0.05-0.04,0.07c-0.09,0.12-0.16,0.24-0.23,0.37c-0.02,0.04-0.05,0.08-0.07,0.12c-0.01,0.01-0.01,0.03-0.01,0.04
			c-0.06,0.13-0.1,0.27-0.14,0.4c-0.01,0.05-0.04,0.09-0.05,0.14c0,0.01,0,0.01,0,0.02c-0.04,0.19-0.06,0.39-0.06,0.59v8.68
			c0-0.2,0.02-0.4,0.06-0.59C174.93,158.57,174.95,158.52,174.97,158.46z"/>
		<path fill="#842A4E" d="M212.18,195.93c0.05-0.14,0.1-0.28,0.16-0.41c0.04-0.08,0.1-0.16,0.15-0.24c0.08-0.12,0.16-0.24,0.26-0.35
			c0.04-0.04,0.08-0.08,0.12-0.12c0.16-0.15,0.32-0.3,0.52-0.41c0.45-0.27,0.91-0.56,1.36-0.85c0.14-0.09,0.28-0.19,0.43-0.29
			c0.31-0.21,0.62-0.43,0.93-0.66c0.16-0.12,0.32-0.24,0.48-0.36c0.3-0.22,0.59-0.46,0.88-0.69c0.15-0.12,0.3-0.25,0.46-0.37
			c0.34-0.28,0.67-0.58,1-0.88c0.1-0.09,0.19-0.17,0.29-0.26c0.42-0.39,0.83-0.8,1.24-1.22c0.1-0.11,0.21-0.22,0.31-0.33
			c0.3-0.32,0.59-0.65,0.88-0.98c0.14-0.16,0.27-0.32,0.4-0.48c0.14-0.16,0.28-0.32,0.41-0.49c0.11-0.14,0.21-0.28,0.31-0.42
			c0.15-0.2,0.3-0.4,0.45-0.6c0.23-0.31,0.44-0.63,0.66-0.95c0.14-0.2,0.28-0.41,0.41-0.62c0.22-0.35,0.44-0.71,0.65-1.08
			c0.11-0.19,0.22-0.38,0.33-0.57c0.28-0.5,0.54-1.02,0.79-1.54c0.03-0.07,0.07-0.13,0.1-0.19c0-0.01,0.01-0.01,0.01-0.02
			c0.26-0.56,0.5-1.14,0.73-1.73c0.07-0.17,0.13-0.35,0.2-0.53c0.16-0.45,0.32-0.9,0.46-1.36c0.06-0.19,0.12-0.39,0.18-0.58
			c0.17-0.56,0.32-1.14,0.45-1.72c0.02-0.08,0.04-0.15,0.06-0.23c0-0.02,0.01-0.03,0.01-0.05c0.14-0.64,0.26-1.3,0.36-1.97
			c0.03-0.19,0.05-0.39,0.08-0.58c0.07-0.53,0.13-1.06,0.17-1.6c0.02-0.21,0.04-0.42,0.05-0.63c0.05-0.73,0.08-1.47,0.08-2.22v-8.68
			c0,0.76-0.03,1.49-0.08,2.22c-0.01,0.21-0.03,0.42-0.05,0.63c-0.05,0.54-0.1,1.08-0.17,1.6c-0.03,0.19-0.05,0.39-0.08,0.58
			c-0.11,0.69-0.23,1.36-0.37,2.02c-0.02,0.08-0.04,0.15-0.06,0.23c-0.13,0.59-0.29,1.16-0.45,1.72c-0.06,0.2-0.12,0.39-0.18,0.58
			c-0.15,0.46-0.3,0.91-0.47,1.36c-0.07,0.18-0.13,0.35-0.2,0.53c-0.23,0.59-0.48,1.18-0.74,1.75c-0.03,0.06-0.06,0.13-0.1,0.19
			c-0.25,0.53-0.51,1.04-0.79,1.55c-0.11,0.19-0.22,0.38-0.33,0.57c-0.21,0.37-0.43,0.73-0.65,1.08c-0.13,0.21-0.27,0.41-0.41,0.62
			c-0.22,0.32-0.43,0.64-0.66,0.95c-0.15,0.2-0.3,0.4-0.45,0.6c-0.24,0.31-0.48,0.61-0.73,0.91c-0.13,0.16-0.27,0.32-0.4,0.48
			c-0.29,0.34-0.59,0.66-0.89,0.98c-0.1,0.11-0.2,0.22-0.31,0.33c-0.41,0.42-0.82,0.83-1.24,1.22c-0.09,0.09-0.19,0.17-0.29,0.26
			c-0.33,0.3-0.66,0.6-1,0.88c-0.15,0.13-0.3,0.25-0.45,0.37c-0.29,0.24-0.59,0.47-0.88,0.7c-0.16,0.12-0.32,0.24-0.48,0.36
			c-0.31,0.23-0.62,0.44-0.93,0.66c-0.14,0.1-0.28,0.2-0.43,0.29c-0.45,0.3-0.9,0.58-1.36,0.85c-0.2,0.12-0.36,0.26-0.52,0.41
			c-0.04,0.04-0.08,0.08-0.12,0.12c-0.04,0.04-0.08,0.08-0.12,0.13c-0.06,0.07-0.09,0.15-0.14,0.22c-0.05,0.08-0.11,0.16-0.15,0.24
			c-0.02,0.03-0.04,0.06-0.05,0.09c-0.05,0.1-0.07,0.21-0.11,0.32c-0.02,0.07-0.05,0.14-0.07,0.21c0,0.02-0.01,0.03-0.02,0.05
			c-0.04,0.2-0.07,0.4-0.07,0.61v8.68c0-0.22,0.03-0.44,0.08-0.66C212.12,196.07,212.15,196,212.18,195.93z"/>
		<path fill="#842A4E" d="M205.29,232.22c-1.11,0-2.12-0.63-2.6-1.62l-17.93-37.12c-0.48-0.99-1.48-1.62-2.6-1.62h-4.42
			c-0.22,0-0.43,0.03-0.63,0.07c-0.07,0.01-0.13,0.04-0.19,0.06c-0.13,0.04-0.26,0.08-0.39,0.14c-0.07,0.03-0.14,0.07-0.2,0.11
			c-0.11,0.06-0.22,0.13-0.32,0.2c-0.06,0.05-0.12,0.1-0.18,0.15c-0.09,0.08-0.18,0.17-0.26,0.26c-0.03,0.04-0.07,0.06-0.1,0.1
			c-0.02,0.02-0.03,0.05-0.04,0.07c-0.09,0.12-0.16,0.24-0.23,0.37c-0.02,0.04-0.05,0.08-0.07,0.12c-0.01,0.01-0.01,0.03-0.01,0.04
			c-0.06,0.13-0.1,0.27-0.14,0.41c-0.01,0.05-0.03,0.09-0.05,0.13c0,0,0,0.01,0,0.01c-0.04,0.19-0.06,0.39-0.06,0.59v8.68
			c0-0.2,0.02-0.4,0.06-0.59c0.01-0.05,0.03-0.1,0.05-0.15c0.04-0.14,0.08-0.28,0.14-0.41c0.02-0.05,0.06-0.1,0.09-0.16
			c0.07-0.13,0.14-0.26,0.23-0.37c0.05-0.06,0.1-0.12,0.15-0.17c0.08-0.09,0.17-0.18,0.26-0.26c0.06-0.05,0.12-0.1,0.18-0.15
			c0.1-0.07,0.21-0.14,0.32-0.2c0.07-0.04,0.13-0.08,0.2-0.11c0.12-0.06,0.26-0.1,0.39-0.14c0.06-0.02,0.13-0.04,0.19-0.06
			c0.2-0.04,0.41-0.07,0.63-0.07h4.42c1.12,0,2.12,0.63,2.6,1.62l17.93,37.12c0.48,0.99,1.49,1.62,2.6,1.62h24.83
			c0.23,0,0.44-0.03,0.65-0.07c0.07-0.02,0.13-0.04,0.2-0.06c0.13-0.04,0.27-0.08,0.39-0.14c0.07-0.03,0.14-0.07,0.21-0.11
			c0.11-0.06,0.21-0.13,0.31-0.2c0.06-0.05,0.12-0.1,0.18-0.16c0.09-0.08,0.17-0.16,0.25-0.25c0.03-0.03,0.06-0.06,0.09-0.09
			c0.02-0.03,0.03-0.06,0.05-0.09c0.09-0.12,0.16-0.24,0.23-0.37c0.02-0.04,0.05-0.08,0.07-0.12c0.01-0.02,0.01-0.03,0.02-0.05
			c0.06-0.13,0.1-0.27,0.14-0.41c0.01-0.04,0.03-0.08,0.04-0.13c0-0.01,0-0.01,0-0.02c0.04-0.19,0.06-0.38,0.06-0.57v-5.69
			L205.29,232.22z"/>
		<path fill="#842A4E" d="M174.74,230.13c-0.04,0.14-0.08,0.28-0.14,0.4c-0.02,0.06-0.06,0.11-0.09,0.16
			c-0.07,0.13-0.14,0.25-0.23,0.37c-0.05,0.06-0.1,0.12-0.15,0.17c-0.08,0.09-0.17,0.18-0.26,0.26c-0.06,0.05-0.12,0.1-0.18,0.15
			c-0.1,0.07-0.21,0.14-0.32,0.2c-0.07,0.04-0.13,0.08-0.2,0.11c-0.12,0.06-0.26,0.1-0.39,0.14c-0.06,0.02-0.13,0.04-0.19,0.06
			c-0.2,0.04-0.41,0.07-0.63,0.07h-21.3c-1.59,0-2.88-1.27-2.88-2.84v8.68c0,1.57,1.29,2.84,2.88,2.84h21.3
			c0.22,0,0.43-0.03,0.63-0.07c0.07-0.01,0.13-0.04,0.19-0.06c0.13-0.04,0.26-0.08,0.39-0.14c0.07-0.03,0.14-0.07,0.2-0.11
			c0.11-0.06,0.22-0.13,0.32-0.2c0.06-0.05,0.12-0.1,0.18-0.15c0.09-0.08,0.18-0.17,0.26-0.26c0.03-0.04,0.07-0.06,0.1-0.1
			c0.02-0.02,0.03-0.05,0.04-0.07c0.09-0.12,0.16-0.24,0.23-0.37c0.02-0.04,0.05-0.08,0.07-0.12c0.01-0.01,0.01-0.03,0.01-0.04
			c0.06-0.13,0.1-0.27,0.14-0.41c0.01-0.05,0.04-0.09,0.05-0.14c0-0.01,0-0.01,0-0.02c0.04-0.19,0.06-0.39,0.06-0.59v-8.68
			c0,0.2-0.02,0.4-0.06,0.59C174.78,230.03,174.76,230.07,174.74,230.13z"/>
	</g>
	<g>
		<path fill="#4A7C95" d="M270.62,183.24c0-0.4,0.01-0.8,0.01-1.18c0-0.23,0.01-0.44,0.01-0.66c0-0.35,0.01-0.7,0.02-1.03
			c0-0.23,0.01-0.46,0.01-0.69c0.01-0.31,0.01-0.61,0.02-0.91c0.01-0.23,0.01-0.45,0.02-0.67c0.01-0.29,0.02-0.57,0.03-0.84
			c0.01-0.21,0.01-0.43,0.02-0.64c0.01-0.27,0.02-0.54,0.03-0.8c0.01-0.2,0.02-0.39,0.03-0.59c0.01-0.26,0.02-0.52,0.04-0.77
			c0.01-0.18,0.02-0.37,0.03-0.55c0.01-0.25,0.03-0.49,0.04-0.73c0.01-0.17,0.02-0.33,0.03-0.5c0.02-0.25,0.03-0.49,0.05-0.72
			c0.01-0.14,0.02-0.29,0.03-0.43c0.02-0.26,0.04-0.51,0.07-0.76c0.01-0.1,0.02-0.21,0.03-0.32c0.03-0.35,0.07-0.69,0.1-1.01
			c0-0.02,0.01-0.04,0.01-0.07c0.03-0.3,0.07-0.59,0.1-0.87c0.01-0.1,0.03-0.2,0.04-0.3c0.03-0.2,0.05-0.39,0.08-0.58
			c0.02-0.11,0.03-0.22,0.05-0.33c0.03-0.17,0.05-0.33,0.08-0.49c0.02-0.11,0.04-0.22,0.06-0.33c0.03-0.15,0.05-0.3,0.08-0.44
			c0.02-0.11,0.04-0.21,0.06-0.31c0.03-0.14,0.05-0.27,0.08-0.4c0.02-0.08,0.03-0.16,0.05-0.24c0.07-0.32,0.15-0.63,0.22-0.92
			c0.01-0.04,0.02-0.08,0.03-0.12c0.08-0.29,0.16-0.56,0.24-0.82c0-0.01,0.01-0.02,0.01-0.04c0.09-0.26,0.18-0.51,0.27-0.75
			c0.02-0.04,0.03-0.08,0.04-0.12c0.09-0.22,0.18-0.44,0.27-0.64c0.02-0.04,0.03-0.07,0.05-0.11c0.1-0.22,0.21-0.43,0.32-0.63
			c0.02-0.03,0.03-0.06,0.05-0.08c0.11-0.2,0.23-0.4,0.34-0.58c0.01-0.02,0.03-0.04,0.04-0.07c0.12-0.19,0.25-0.37,0.37-0.55
			c0.01-0.01,0.02-0.02,0.03-0.03c0.13-0.19,0.27-0.37,0.41-0.55c0.14-0.18,0.32-0.36,0.48-0.54c0.13-0.15,0.25-0.3,0.4-0.44
			c0.16-0.16,0.35-0.31,0.53-0.47c0.16-0.14,0.3-0.28,0.47-0.41c0.19-0.15,0.41-0.29,0.62-0.43c0.18-0.12,0.35-0.25,0.54-0.37
			c0.23-0.14,0.48-0.26,0.72-0.38c0.2-0.1,0.38-0.21,0.59-0.31c0.26-0.12,0.54-0.22,0.81-0.33c0.21-0.08,0.41-0.18,0.63-0.25
			c0.3-0.1,0.62-0.18,0.93-0.26c0.21-0.06,0.42-0.13,0.64-0.18c0.36-0.08,0.74-0.13,1.12-0.18c0.19-0.03,0.37-0.07,0.57-0.09
			c0.58-0.06,1.18-0.1,1.8-0.1c4.95,0,8.82,2.14,10.83,4.72c2.48,3.2,4.02,6.86,4.02,26.66v-8.68c0-19.8-1.55-23.46-4.02-26.66
			c-2.01-2.59-5.88-4.72-10.83-4.72c-0.62,0-1.21,0.03-1.8,0.1c-0.2,0.02-0.38,0.06-0.57,0.09c-0.38,0.05-0.76,0.1-1.12,0.18
			c-0.22,0.05-0.42,0.12-0.63,0.17c-0.32,0.08-0.64,0.16-0.94,0.26c-0.22,0.07-0.41,0.16-0.62,0.25c-0.28,0.11-0.56,0.21-0.82,0.33
			c-0.21,0.1-0.39,0.21-0.59,0.31c-0.24,0.13-0.49,0.25-0.72,0.38c-0.19,0.11-0.36,0.24-0.53,0.36c-0.21,0.14-0.43,0.28-0.62,0.43
			c-0.17,0.13-0.31,0.27-0.47,0.41c-0.18,0.16-0.37,0.31-0.53,0.47c-0.15,0.14-0.27,0.3-0.4,0.44c-0.14,0.15-0.29,0.3-0.41,0.45
			c-0.02,0.03-0.04,0.05-0.06,0.08c-0.14,0.18-0.28,0.36-0.41,0.55c-0.01,0.01-0.02,0.02-0.03,0.03c-0.13,0.18-0.25,0.36-0.37,0.55
			c-0.01,0.02-0.03,0.04-0.04,0.07c-0.12,0.19-0.23,0.38-0.34,0.58c-0.02,0.03-0.03,0.06-0.05,0.08c-0.11,0.2-0.22,0.41-0.32,0.63
			c-0.01,0.02-0.02,0.04-0.03,0.06c-0.01,0.02-0.02,0.04-0.02,0.05c-0.09,0.2-0.19,0.42-0.27,0.64c-0.02,0.04-0.03,0.08-0.04,0.12
			c-0.09,0.24-0.18,0.48-0.27,0.75c0,0.01-0.01,0.02-0.01,0.03c-0.08,0.26-0.17,0.54-0.25,0.83c-0.01,0.04-0.02,0.08-0.03,0.12
			c-0.08,0.29-0.15,0.6-0.22,0.92c-0.01,0.03-0.01,0.06-0.02,0.09c-0.01,0.05-0.02,0.1-0.03,0.14c-0.03,0.13-0.06,0.26-0.08,0.4
			c-0.02,0.1-0.04,0.2-0.06,0.31c-0.03,0.14-0.05,0.29-0.08,0.44c-0.02,0.11-0.04,0.21-0.06,0.32c-0.03,0.16-0.05,0.32-0.08,0.49
			c-0.02,0.11-0.03,0.22-0.05,0.33c-0.03,0.19-0.05,0.38-0.08,0.58c-0.01,0.1-0.03,0.19-0.04,0.29c-0.04,0.28-0.07,0.57-0.1,0.87
			c0,0.02-0.01,0.04-0.01,0.06c-0.04,0.33-0.07,0.66-0.1,1.01c-0.01,0.1-0.02,0.21-0.03,0.32c-0.02,0.25-0.04,0.5-0.07,0.76
			c-0.01,0.14-0.02,0.29-0.03,0.43c-0.02,0.24-0.04,0.48-0.05,0.72c-0.01,0.16-0.02,0.33-0.03,0.5c-0.01,0.24-0.03,0.48-0.04,0.73
			c-0.01,0.18-0.02,0.36-0.03,0.54c-0.01,0.25-0.03,0.51-0.04,0.77c-0.01,0.19-0.02,0.39-0.03,0.59c-0.01,0.26-0.02,0.53-0.03,0.8
			c-0.01,0.21-0.02,0.42-0.02,0.64c-0.01,0.28-0.02,0.56-0.03,0.84c-0.01,0.22-0.01,0.45-0.02,0.67c-0.01,0.3-0.01,0.6-0.02,0.91
			c0,0.23-0.01,0.45-0.01,0.69c-0.01,0.34-0.01,0.68-0.02,1.03c0,0.22-0.01,0.44-0.01,0.66c0,0.38-0.01,0.78-0.01,1.18
			c0,0.21,0,0.41,0,0.62c0,0.61-0.01,1.24-0.01,1.89v8.68c0-0.65,0-1.28,0.01-1.89C270.61,183.65,270.61,183.45,270.62,183.24z"/>
		<path fill="#4A7C95" d="M326.32,208.07c0.14-0.85,0.25-1.71,0.36-2.58c0.01-0.11,0.03-0.22,0.04-0.34
			c0.1-0.87,0.18-1.76,0.25-2.65c0.01-0.12,0.02-0.23,0.03-0.35c0.07-0.9,0.12-1.82,0.17-2.74c0.01-0.12,0.01-0.23,0.02-0.35
			c0.04-0.94,0.08-1.9,0.1-2.87c0-0.1,0.01-0.21,0.01-0.31c0.03-1,0.04-2.01,0.06-3.03c0-0.08,0-0.16,0-0.25
			c0.01-1.06,0.02-2.14,0.02-3.24c0-0.05,0-0.09,0-0.14c0-1.14,0-2.29,0-3.47v-8.68c0,1.17,0,2.33,0,3.47c0,0.05,0,0.09,0,0.14
			c0,1.1-0.01,2.18-0.02,3.24c0,0.08,0,0.16,0,0.25c-0.01,1.03-0.03,2.04-0.06,3.03c0,0.1-0.01,0.21-0.01,0.31
			c-0.03,0.97-0.06,1.93-0.1,2.87c-0.01,0.12-0.01,0.23-0.02,0.35c-0.05,0.93-0.1,1.84-0.17,2.74c-0.01,0.12-0.02,0.23-0.03,0.35
			c-0.07,0.9-0.16,1.78-0.25,2.65c-0.01,0.11-0.03,0.22-0.04,0.34c-0.1,0.87-0.22,1.73-0.36,2.58c-0.02,0.1-0.03,0.2-0.05,0.3
			c-0.14,0.86-0.3,1.7-0.48,2.53c-0.02,0.09-0.04,0.18-0.06,0.27c-0.14,0.62-0.29,1.23-0.45,1.83c-0.03,0.13-0.07,0.25-0.1,0.38
			c-0.17,0.61-0.34,1.21-0.54,1.8c-0.01,0.02-0.01,0.03-0.01,0.05c-0.2,0.6-0.41,1.19-0.64,1.78c-0.05,0.12-0.1,0.25-0.15,0.37
			c-0.23,0.57-0.47,1.14-0.73,1.7c-0.05,0.11-0.1,0.21-0.15,0.32c-0.2,0.41-0.4,0.83-0.62,1.23c-0.07,0.13-0.14,0.26-0.21,0.39
			c-0.27,0.49-0.55,0.99-0.85,1.47c-0.04,0.06-0.07,0.11-0.11,0.17c-0.27,0.43-0.55,0.86-0.85,1.29c-0.09,0.13-0.18,0.26-0.27,0.39
			c-0.31,0.44-0.63,0.87-0.97,1.31c-0.03,0.04-0.06,0.08-0.09,0.12c-0.39,0.49-0.8,0.97-1.23,1.45c-0.1,0.12-0.21,0.23-0.31,0.35
			c-0.44,0.48-0.89,0.96-1.37,1.43c-7.89,7.76-17.17,11.88-30.63,11.88c-13.46,0-22.73-4.11-30.63-11.88
			c-11.29-11.12-11.29-24.99-11.29-43.26v8.68c0,18.28,0,32.14,11.29,43.26c7.89,7.76,17.17,11.88,30.63,11.88
			c13.45,0,22.73-4.11,30.63-11.88c0.48-0.47,0.93-0.95,1.37-1.43c0.11-0.12,0.21-0.23,0.31-0.35c0.43-0.48,0.84-0.96,1.23-1.45
			c0.01-0.01,0.01-0.01,0.02-0.02c0.03-0.03,0.05-0.06,0.07-0.1c0.34-0.43,0.66-0.87,0.97-1.31c0.09-0.13,0.18-0.26,0.27-0.39
			c0.29-0.43,0.58-0.85,0.85-1.29c0.04-0.06,0.07-0.11,0.11-0.17c0.3-0.49,0.58-0.98,0.85-1.47c0.07-0.13,0.14-0.26,0.21-0.39
			c0.21-0.41,0.42-0.82,0.62-1.23c0.04-0.08,0.08-0.15,0.11-0.23c0.01-0.03,0.03-0.06,0.04-0.09c0.26-0.56,0.5-1.13,0.73-1.7
			c0.05-0.12,0.1-0.25,0.14-0.37c0.23-0.59,0.44-1.18,0.64-1.78c0.01-0.02,0.01-0.03,0.01-0.05c0.19-0.59,0.37-1.19,0.54-1.8
			c0.03-0.13,0.07-0.25,0.1-0.38c0.16-0.6,0.31-1.21,0.45-1.83c0.01-0.04,0.02-0.07,0.03-0.11c0.01-0.05,0.02-0.11,0.03-0.16
			c0.18-0.83,0.34-1.68,0.48-2.53C326.29,208.27,326.3,208.17,326.32,208.07z"/>
	</g>
	<g>
		<path fill="#6C803E" d="M432.09,230.76c0,0.1-0.01,0.2-0.03,0.3c-0.01,0.03-0.02,0.05-0.02,0.08c-0.02,0.07-0.04,0.14-0.07,0.21
			c-0.01,0.03-0.03,0.05-0.04,0.08c-0.04,0.07-0.07,0.13-0.12,0.19c-0.02,0.03-0.05,0.06-0.08,0.09c-0.04,0.05-0.09,0.09-0.13,0.14
			c-0.03,0.03-0.06,0.05-0.09,0.08c-0.05,0.04-0.11,0.07-0.16,0.1c-0.03,0.02-0.07,0.04-0.1,0.06c-0.06,0.03-0.13,0.05-0.2,0.07
			c-0.03,0.01-0.07,0.02-0.1,0.03c-0.1,0.02-0.21,0.04-0.32,0.04h-21.37c-0.5,0-0.98-0.25-1.25-0.67l-32.09-49.63
			c-0.3-0.47-0.77-0.68-1.23-0.68c-0.11,0-0.21,0.01-0.31,0.03c-0.03,0.01-0.06,0.02-0.1,0.03c-0.07,0.02-0.14,0.04-0.2,0.07
			c-0.04,0.02-0.07,0.03-0.1,0.05c-0.06,0.03-0.12,0.07-0.18,0.11c-0.03,0.02-0.06,0.04-0.09,0.07c-0.06,0.05-0.11,0.1-0.16,0.16
			c-0.02,0.02-0.04,0.03-0.05,0.05c0,0.01-0.01,0.01-0.01,0.02c-0.05,0.06-0.09,0.13-0.13,0.21c-0.01,0.02-0.02,0.03-0.03,0.05
			c0,0,0,0,0,0.01c-0.03,0.06-0.04,0.12-0.06,0.18c-0.01,0.04-0.03,0.07-0.04,0.1c0,0,0,0,0,0c-0.02,0.1-0.03,0.21-0.03,0.33v8.68
			c0-0.11,0.01-0.22,0.03-0.33c0.01-0.04,0.02-0.07,0.04-0.11c0.02-0.06,0.04-0.13,0.06-0.18c0.01-0.02,0.02-0.04,0.03-0.06
			c0.04-0.07,0.08-0.14,0.13-0.21c0.02-0.03,0.04-0.05,0.06-0.07c0.05-0.06,0.1-0.11,0.16-0.16c0.03-0.02,0.06-0.05,0.09-0.07
			c0.06-0.04,0.11-0.08,0.18-0.11c0.03-0.02,0.07-0.04,0.1-0.05c0.07-0.03,0.13-0.05,0.2-0.07c0.03-0.01,0.06-0.02,0.1-0.03
			c0.1-0.02,0.21-0.03,0.31-0.03c0.46,0,0.93,0.21,1.23,0.68l32.09,49.63c0.27,0.43,0.75,0.67,1.25,0.67h21.37
			c0.11,0,0.22-0.01,0.32-0.04c0.03-0.01,0.07-0.02,0.1-0.03c0.07-0.02,0.14-0.04,0.2-0.07c0.04-0.02,0.07-0.04,0.1-0.06
			c0.06-0.03,0.11-0.07,0.16-0.1c0.03-0.02,0.06-0.05,0.09-0.08c0.05-0.04,0.09-0.09,0.13-0.14c0.02-0.02,0.04-0.03,0.05-0.05
			c0.01-0.01,0.01-0.03,0.02-0.04c0.05-0.06,0.08-0.13,0.12-0.19c0.01-0.02,0.03-0.04,0.04-0.06c0-0.01,0-0.01,0.01-0.02
			c0.03-0.07,0.05-0.14,0.07-0.21c0.01-0.02,0.02-0.04,0.02-0.07c0,0,0,0,0-0.01c0.02-0.1,0.03-0.2,0.03-0.3V230.76z"/>
		<path fill="#6C803E" d="M373.1,231.14c-0.02,0.07-0.04,0.14-0.07,0.21c-0.01,0.03-0.03,0.05-0.04,0.08
			c-0.04,0.07-0.07,0.13-0.12,0.19c-0.02,0.03-0.05,0.06-0.08,0.09c-0.04,0.05-0.09,0.09-0.13,0.14c-0.03,0.03-0.06,0.05-0.09,0.08
			c-0.05,0.04-0.11,0.07-0.16,0.1c-0.03,0.02-0.07,0.04-0.1,0.06c-0.06,0.03-0.13,0.05-0.2,0.07c-0.03,0.01-0.07,0.02-0.1,0.03
			c-0.1,0.02-0.21,0.04-0.32,0.04h-24.1c-0.82,0-1.48-0.66-1.48-1.46v8.68c0,0.81,0.67,1.46,1.48,1.46h24.1
			c0.11,0,0.22-0.01,0.32-0.04c0.03-0.01,0.07-0.02,0.1-0.03c0.07-0.02,0.14-0.04,0.2-0.07c0.04-0.02,0.07-0.04,0.1-0.06
			c0.06-0.03,0.11-0.07,0.16-0.1c0.03-0.02,0.06-0.05,0.09-0.08c0.05-0.04,0.09-0.09,0.13-0.14c0.02-0.02,0.04-0.03,0.05-0.05
			c0.01-0.01,0.01-0.03,0.02-0.04c0.05-0.06,0.08-0.13,0.12-0.19c0.01-0.02,0.03-0.04,0.04-0.06c0-0.01,0-0.01,0.01-0.02
			c0.03-0.07,0.05-0.14,0.07-0.21c0.01-0.02,0.02-0.04,0.02-0.07c0,0,0,0,0-0.01c0.02-0.1,0.03-0.2,0.03-0.3v-8.68
			c0,0.1-0.01,0.2-0.03,0.3C373.12,231.09,373.11,231.11,373.1,231.14z"/>
	</g>
	<g>
		<path fill="#936C02" d="M477.89,183.25c0-0.4,0.01-0.8,0.01-1.19c0-0.23,0.01-0.45,0.01-0.67c0-0.34,0.01-0.68,0.02-1.02
			c0-0.24,0.01-0.47,0.01-0.7c0.01-0.31,0.01-0.61,0.02-0.91c0.01-0.23,0.01-0.45,0.02-0.67c0.01-0.29,0.02-0.58,0.03-0.86
			c0.01-0.21,0.01-0.42,0.02-0.63c0.01-0.27,0.02-0.54,0.03-0.81c0.01-0.2,0.02-0.39,0.03-0.59c0.01-0.26,0.02-0.52,0.04-0.77
			c0.01-0.18,0.02-0.36,0.03-0.54c0.01-0.25,0.03-0.5,0.04-0.74c0.01-0.16,0.02-0.33,0.03-0.49c0.02-0.25,0.03-0.48,0.05-0.72
			c0.01-0.14,0.02-0.29,0.03-0.43c0.02-0.26,0.04-0.52,0.07-0.77c0.01-0.1,0.02-0.21,0.03-0.31c0.03-0.35,0.07-0.68,0.1-1
			c0.01-0.08,0.02-0.16,0.03-0.23c0.03-0.24,0.05-0.48,0.08-0.71c0.01-0.11,0.03-0.22,0.04-0.33c0.02-0.19,0.05-0.37,0.07-0.55
			c0.02-0.12,0.03-0.23,0.05-0.34c0.02-0.16,0.05-0.32,0.07-0.47c0.02-0.11,0.04-0.22,0.06-0.33c0.03-0.15,0.05-0.29,0.08-0.43
			c0.02-0.11,0.04-0.21,0.06-0.32c0.03-0.13,0.05-0.27,0.08-0.39c0.02-0.08,0.04-0.16,0.05-0.24c0.07-0.32,0.14-0.62,0.22-0.91
			c0.01-0.05,0.02-0.09,0.04-0.13c0.08-0.29,0.16-0.57,0.25-0.83c0-0.01,0-0.01,0.01-0.02c0.09-0.26,0.18-0.51,0.27-0.75
			c0.01-0.04,0.03-0.08,0.04-0.11c0.09-0.22,0.18-0.44,0.27-0.64c0.02-0.04,0.03-0.07,0.05-0.11c0.1-0.22,0.21-0.43,0.32-0.63
			c0.02-0.03,0.03-0.06,0.05-0.09c0.11-0.2,0.23-0.39,0.34-0.58c0.01-0.02,0.03-0.04,0.04-0.07c0.12-0.19,0.24-0.37,0.37-0.55
			c0.01-0.01,0.02-0.03,0.03-0.04c0.13-0.18,0.27-0.37,0.41-0.55c0.14-0.18,0.31-0.35,0.47-0.53c0.13-0.15,0.25-0.3,0.4-0.44
			c0.16-0.16,0.35-0.31,0.53-0.47c0.16-0.14,0.3-0.28,0.47-0.41c0.19-0.15,0.41-0.29,0.62-0.43c0.18-0.12,0.35-0.25,0.54-0.37
			c0.22-0.14,0.47-0.25,0.71-0.38c0.2-0.1,0.39-0.22,0.6-0.32c0.26-0.12,0.53-0.22,0.8-0.32c0.21-0.08,0.42-0.18,0.64-0.25
			c0.3-0.1,0.62-0.18,0.93-0.26c0.21-0.06,0.42-0.13,0.64-0.18c0.36-0.08,0.75-0.13,1.13-0.19c0.19-0.03,0.36-0.07,0.55-0.09
			c0.58-0.06,1.18-0.1,1.79-0.1c4.95,0,8.82,2.14,10.84,4.72c2.48,3.2,4.01,6.86,4.01,26.66v-8.68c0-19.8-1.54-23.46-4.01-26.66
			c-2.02-2.59-5.89-4.72-10.84-4.72c-0.62,0-1.21,0.03-1.79,0.1c-0.19,0.02-0.37,0.06-0.55,0.09c-0.38,0.06-0.77,0.11-1.13,0.19
			c-0.22,0.05-0.42,0.12-0.64,0.18c-0.31,0.08-0.63,0.16-0.93,0.26c-0.22,0.07-0.42,0.17-0.63,0.25c-0.27,0.11-0.55,0.21-0.81,0.32
			c-0.21,0.1-0.39,0.21-0.59,0.31c-0.24,0.13-0.49,0.25-0.72,0.38c-0.19,0.12-0.36,0.24-0.54,0.37c-0.21,0.14-0.43,0.28-0.62,0.43
			c-0.17,0.13-0.32,0.27-0.47,0.41c-0.18,0.16-0.37,0.31-0.53,0.47c-0.15,0.14-0.27,0.3-0.4,0.44c-0.14,0.15-0.29,0.31-0.42,0.46
			c-0.02,0.02-0.03,0.04-0.05,0.06c-0.14,0.18-0.27,0.36-0.41,0.55c-0.01,0.01-0.02,0.03-0.03,0.04c-0.13,0.18-0.25,0.36-0.37,0.55
			c-0.01,0.02-0.03,0.04-0.04,0.06c-0.12,0.18-0.23,0.38-0.34,0.58c-0.02,0.03-0.03,0.06-0.05,0.09c-0.11,0.2-0.22,0.41-0.32,0.63
			c-0.01,0.02-0.02,0.04-0.03,0.06c-0.01,0.02-0.02,0.04-0.02,0.05c-0.09,0.2-0.19,0.42-0.27,0.64c-0.01,0.04-0.03,0.08-0.04,0.11
			c-0.09,0.24-0.18,0.49-0.27,0.75c0,0.01,0,0.01,0,0.02c-0.09,0.26-0.17,0.54-0.25,0.83c-0.01,0.04-0.02,0.09-0.04,0.13
			c-0.08,0.29-0.15,0.59-0.22,0.91c-0.01,0.03-0.01,0.06-0.02,0.09c-0.01,0.05-0.02,0.1-0.03,0.16c-0.03,0.13-0.05,0.26-0.08,0.39
			c-0.02,0.1-0.04,0.21-0.06,0.32c-0.03,0.14-0.05,0.29-0.08,0.43c-0.02,0.11-0.04,0.22-0.06,0.33c-0.03,0.15-0.05,0.31-0.07,0.47
			c-0.02,0.11-0.04,0.23-0.05,0.34c-0.03,0.18-0.05,0.36-0.07,0.55c-0.01,0.11-0.03,0.21-0.04,0.33c-0.03,0.23-0.06,0.47-0.08,0.71
			c-0.01,0.08-0.02,0.15-0.03,0.23c-0.03,0.32-0.07,0.66-0.1,1c-0.01,0.1-0.02,0.2-0.03,0.31c-0.02,0.25-0.04,0.51-0.07,0.77
			c-0.01,0.14-0.02,0.29-0.03,0.43c-0.02,0.24-0.04,0.47-0.05,0.72c-0.01,0.16-0.02,0.33-0.03,0.49c-0.02,0.24-0.03,0.49-0.04,0.74
			c-0.01,0.18-0.02,0.36-0.03,0.54c-0.01,0.25-0.03,0.51-0.04,0.77c-0.01,0.19-0.02,0.39-0.03,0.59c-0.01,0.26-0.02,0.53-0.03,0.81
			c-0.01,0.21-0.01,0.41-0.02,0.63c-0.01,0.28-0.02,0.57-0.03,0.86c-0.01,0.22-0.01,0.44-0.02,0.67c-0.01,0.3-0.01,0.6-0.02,0.91
			c0,0.23-0.01,0.47-0.01,0.7c-0.01,0.33-0.01,0.67-0.02,1.02c0,0.22-0.01,0.44-0.01,0.67c0,0.39-0.01,0.79-0.01,1.19
			c0,0.21,0,0.41,0,0.62c0,0.61-0.01,1.24-0.01,1.89v8.68c0-0.65,0-1.28,0.01-1.89C477.89,183.65,477.89,183.45,477.89,183.25z"/>
		<path fill="#936C02" d="M533.59,208.07c0.14-0.85,0.25-1.71,0.36-2.58c0.01-0.11,0.03-0.22,0.04-0.33
			c0.1-0.87,0.18-1.76,0.25-2.65c0.01-0.12,0.02-0.23,0.03-0.35c0.07-0.9,0.12-1.82,0.17-2.75c0.01-0.11,0.01-0.23,0.02-0.34
			c0.04-0.94,0.08-1.9,0.1-2.87c0-0.1,0.01-0.21,0.01-0.31c0.03-1,0.04-2.01,0.06-3.03c0-0.08,0-0.16,0-0.25
			c0.01-1.06,0.02-2.14,0.02-3.24c0-0.05,0-0.09,0-0.14c0-1.14,0-2.29,0-3.47v-8.68c0,1.17,0,2.33,0,3.47c0,0.05,0,0.09,0,0.14
			c0,1.1-0.01,2.18-0.02,3.24c0,0.08,0,0.16,0,0.25c-0.01,1.03-0.03,2.04-0.06,3.03c0,0.1-0.01,0.21-0.01,0.31
			c-0.03,0.97-0.06,1.93-0.1,2.87c-0.01,0.11-0.01,0.23-0.02,0.34c-0.05,0.93-0.1,1.85-0.17,2.75c-0.01,0.12-0.02,0.23-0.03,0.35
			c-0.07,0.9-0.16,1.78-0.25,2.65c-0.01,0.11-0.03,0.22-0.04,0.33c-0.1,0.87-0.22,1.73-0.36,2.58c-0.02,0.1-0.03,0.2-0.05,0.3
			c-0.14,0.86-0.3,1.7-0.48,2.54c-0.02,0.09-0.04,0.18-0.06,0.27c-0.14,0.62-0.29,1.23-0.45,1.83c-0.03,0.13-0.07,0.25-0.1,0.37
			c-0.17,0.61-0.34,1.21-0.54,1.8c-0.01,0.02-0.01,0.03-0.01,0.05c-0.2,0.6-0.41,1.19-0.64,1.78c-0.05,0.12-0.1,0.25-0.14,0.37
			c-0.23,0.57-0.47,1.14-0.73,1.7c-0.05,0.1-0.1,0.21-0.15,0.31c-0.2,0.42-0.4,0.83-0.62,1.24c-0.07,0.13-0.14,0.26-0.21,0.39
			c-0.27,0.5-0.55,0.99-0.85,1.47c-0.03,0.06-0.07,0.11-0.11,0.17c-0.27,0.43-0.55,0.86-0.85,1.29c-0.09,0.13-0.18,0.26-0.27,0.39
			c-0.31,0.44-0.63,0.87-0.97,1.31c-0.03,0.04-0.06,0.08-0.09,0.12c-0.39,0.49-0.8,0.97-1.23,1.45c-0.1,0.12-0.21,0.23-0.31,0.35
			c-0.44,0.48-0.89,0.96-1.37,1.43c-7.88,7.76-17.16,11.88-30.63,11.88c-13.45,0-22.73-4.11-30.62-11.88
			c-11.3-11.12-11.3-24.99-11.3-43.26v8.68c0,18.28,0,32.14,11.3,43.26c7.88,7.76,17.16,11.88,30.62,11.88
			c13.46,0,22.74-4.11,30.63-11.88c0.48-0.47,0.93-0.95,1.37-1.43c0.11-0.12,0.21-0.23,0.31-0.35c0.43-0.48,0.84-0.96,1.23-1.45
			c0.01-0.01,0.01-0.01,0.02-0.02c0.02-0.03,0.05-0.06,0.07-0.09c0.34-0.43,0.66-0.87,0.98-1.31c0.09-0.13,0.18-0.26,0.27-0.39
			c0.29-0.43,0.58-0.85,0.85-1.29c0.04-0.06,0.07-0.11,0.11-0.17c0.3-0.49,0.58-0.98,0.85-1.47c0.07-0.13,0.14-0.26,0.21-0.39
			c0.22-0.41,0.42-0.82,0.62-1.24c0.04-0.07,0.08-0.15,0.11-0.22c0.01-0.03,0.02-0.06,0.04-0.09c0.26-0.56,0.5-1.13,0.73-1.7
			c0.05-0.12,0.1-0.25,0.14-0.37c0.23-0.59,0.44-1.18,0.64-1.78c0.01-0.02,0.01-0.03,0.01-0.05c0.19-0.59,0.37-1.2,0.54-1.8
			c0.03-0.12,0.07-0.25,0.1-0.37c0.16-0.61,0.31-1.22,0.45-1.83c0.01-0.04,0.02-0.07,0.03-0.11c0.01-0.05,0.02-0.11,0.03-0.16
			c0.18-0.83,0.34-1.68,0.48-2.54C533.56,208.27,533.57,208.17,533.59,208.07z"/>
	</g>
	<g>
		<path fill="#676480" d="M626.53,144.21c0,0.24-0.03,0.47-0.07,0.69c-0.01,0.06-0.04,0.12-0.06,0.18
			c-0.04,0.16-0.09,0.32-0.16,0.47c-0.03,0.07-0.07,0.13-0.1,0.19c-0.08,0.15-0.17,0.3-0.27,0.43c-0.05,0.07-0.11,0.14-0.17,0.21
			c-0.09,0.11-0.19,0.21-0.3,0.3c-0.07,0.06-0.14,0.12-0.21,0.17c-0.12,0.09-0.24,0.16-0.37,0.23c-0.08,0.04-0.16,0.09-0.24,0.13
			c-0.14,0.07-0.3,0.12-0.45,0.16c-0.08,0.02-0.15,0.05-0.22,0.07c-0.24,0.05-0.48,0.08-0.73,0.08h-20.33
			c-0.25,0-0.5,0.03-0.74,0.08c-0.08,0.02-0.15,0.05-0.22,0.07c-0.16,0.05-0.31,0.1-0.45,0.16c-0.08,0.04-0.16,0.08-0.24,0.13
			c-0.13,0.07-0.25,0.15-0.37,0.23c-0.07,0.06-0.14,0.11-0.21,0.17c-0.11,0.09-0.21,0.2-0.3,0.3c-0.04,0.04-0.08,0.08-0.12,0.12
			c-0.02,0.03-0.03,0.06-0.05,0.09c-0.1,0.14-0.19,0.28-0.27,0.43c-0.03,0.05-0.06,0.09-0.09,0.14c-0.01,0.01-0.01,0.03-0.02,0.05
			c-0.07,0.15-0.11,0.31-0.16,0.47c-0.02,0.06-0.04,0.11-0.06,0.16c0,0.01,0,0.01,0,0.02c-0.05,0.22-0.07,0.45-0.07,0.69v8.68
			c0-0.24,0.03-0.47,0.07-0.69c0.01-0.06,0.04-0.12,0.06-0.18c0.04-0.16,0.09-0.32,0.16-0.47c0.03-0.07,0.07-0.12,0.1-0.19
			c0.08-0.15,0.17-0.3,0.27-0.43c0.05-0.07,0.11-0.14,0.17-0.2c0.09-0.11,0.19-0.21,0.3-0.3c0.07-0.06,0.14-0.12,0.21-0.17
			c0.12-0.09,0.24-0.16,0.37-0.23c0.08-0.04,0.15-0.09,0.24-0.13c0.15-0.07,0.3-0.12,0.45-0.16c0.08-0.02,0.15-0.05,0.22-0.07
			c0.24-0.05,0.48-0.08,0.74-0.08h20.33c0.25,0,0.5-0.03,0.73-0.08c0.08-0.02,0.15-0.05,0.22-0.07c0.16-0.05,0.31-0.1,0.45-0.16
			c0.08-0.04,0.16-0.08,0.24-0.13c0.13-0.07,0.25-0.15,0.37-0.23c0.07-0.06,0.14-0.11,0.21-0.17c0.11-0.09,0.21-0.2,0.3-0.3
			c0.04-0.04,0.08-0.07,0.12-0.12c0.02-0.03,0.03-0.06,0.05-0.09c0.1-0.14,0.19-0.28,0.27-0.43c0.03-0.05,0.06-0.09,0.09-0.14
			c0.01-0.01,0.01-0.03,0.02-0.05c0.07-0.15,0.12-0.31,0.16-0.47c0.02-0.06,0.04-0.11,0.05-0.16c0-0.01,0-0.01,0-0.02
			c0.05-0.22,0.07-0.45,0.07-0.69V144.21z"/>
		<path fill="#676480" d="M572.39,150.85c0-1.83-1.51-3.31-3.37-3.31H548.7c-1.86,0-3.38-1.49-3.38-3.32v8.68
			c0,1.83,1.51,3.32,3.38,3.32h20.33c1.85,0,3.37,1.48,3.37,3.31V150.85z"/>
		<path fill="#676480" d="M599.34,229.77c-0.04,0.16-0.09,0.32-0.16,0.47c-0.03,0.06-0.07,0.12-0.1,0.18
			c-0.08,0.15-0.17,0.3-0.27,0.43c-0.05,0.07-0.11,0.14-0.17,0.2c-0.1,0.11-0.2,0.21-0.31,0.31c-0.07,0.06-0.14,0.12-0.21,0.17
			c-0.12,0.09-0.24,0.16-0.37,0.24c-0.08,0.04-0.16,0.09-0.24,0.13c-0.15,0.07-0.3,0.12-0.45,0.16c-0.08,0.02-0.15,0.05-0.23,0.07
			c-0.24,0.05-0.48,0.08-0.74,0.08h-20.33c-1.85,0-3.37-1.48-3.37-3.31v8.68c0,1.83,1.51,3.31,3.37,3.31h20.33
			c0.25,0,0.5-0.03,0.74-0.08c0.08-0.02,0.15-0.05,0.23-0.07c0.16-0.05,0.31-0.1,0.45-0.16c0.08-0.04,0.16-0.08,0.24-0.13
			c0.13-0.07,0.25-0.15,0.37-0.24c0.07-0.06,0.14-0.11,0.21-0.17c0.11-0.1,0.21-0.2,0.31-0.31c0.04-0.04,0.08-0.08,0.12-0.12
			c0.02-0.03,0.03-0.06,0.05-0.08c0.1-0.14,0.19-0.28,0.27-0.43c0.03-0.05,0.06-0.09,0.09-0.14c0.01-0.01,0.01-0.03,0.01-0.04
			c0.07-0.15,0.12-0.31,0.16-0.47c0.01-0.05,0.04-0.1,0.05-0.16c0-0.01,0-0.01,0-0.02c0.05-0.22,0.07-0.45,0.07-0.69v-8.68
			c0,0.24-0.03,0.47-0.07,0.69C599.38,229.65,599.35,229.71,599.34,229.77z"/>
	</g>
	<g>
		<path fill="#666455" d="M716.1,144.89c-0.01,0.06-0.04,0.12-0.06,0.18c-0.04,0.16-0.09,0.32-0.16,0.47
			c-0.03,0.07-0.07,0.12-0.1,0.19c-0.08,0.15-0.17,0.3-0.27,0.43c-0.05,0.07-0.11,0.14-0.17,0.2c-0.1,0.11-0.2,0.21-0.3,0.31
			c-0.07,0.06-0.14,0.12-0.21,0.17c-0.12,0.09-0.24,0.16-0.37,0.24c-0.08,0.04-0.16,0.09-0.24,0.13c-0.15,0.07-0.3,0.12-0.46,0.16
			c-0.08,0.02-0.15,0.05-0.23,0.07c-0.24,0.05-0.48,0.08-0.74,0.08h-41.04c-0.25,0-0.5,0.03-0.74,0.08
			c-0.08,0.02-0.15,0.05-0.23,0.07c-0.16,0.05-0.31,0.1-0.45,0.16c-0.08,0.04-0.16,0.08-0.24,0.13c-0.13,0.07-0.25,0.15-0.37,0.24
			c-0.07,0.06-0.14,0.11-0.21,0.17c-0.11,0.1-0.21,0.2-0.3,0.31c-0.04,0.04-0.08,0.08-0.12,0.12c-0.02,0.03-0.03,0.06-0.05,0.08
			c-0.1,0.14-0.19,0.28-0.27,0.44c-0.03,0.05-0.06,0.09-0.09,0.14c-0.01,0.01-0.01,0.03-0.02,0.04c-0.07,0.15-0.12,0.31-0.16,0.48
			c-0.01,0.05-0.04,0.1-0.05,0.16c0,0.01,0,0.01,0,0.02c-0.05,0.22-0.07,0.45-0.07,0.69v8.68c0-0.24,0.03-0.47,0.07-0.69
			c0.01-0.06,0.04-0.12,0.06-0.18c0.04-0.16,0.09-0.32,0.16-0.48c0.03-0.06,0.07-0.12,0.1-0.18c0.08-0.15,0.17-0.3,0.27-0.44
			c0.05-0.07,0.11-0.14,0.17-0.2c0.1-0.11,0.2-0.21,0.3-0.31c0.07-0.06,0.14-0.12,0.21-0.17c0.12-0.09,0.24-0.16,0.37-0.24
			c0.08-0.04,0.16-0.09,0.24-0.13c0.15-0.07,0.3-0.12,0.45-0.16c0.08-0.02,0.15-0.05,0.23-0.07c0.24-0.05,0.48-0.08,0.74-0.08h41.04
			c0.25,0,0.5-0.03,0.74-0.08c0.08-0.02,0.15-0.05,0.23-0.07c0.16-0.05,0.31-0.1,0.46-0.16c0.08-0.04,0.16-0.08,0.24-0.13
			c0.13-0.07,0.25-0.15,0.37-0.24c0.07-0.06,0.14-0.11,0.21-0.17c0.11-0.1,0.21-0.2,0.3-0.31c0.04-0.04,0.08-0.08,0.12-0.12
			c0.02-0.03,0.03-0.06,0.05-0.09c0.1-0.14,0.19-0.28,0.27-0.43c0.03-0.05,0.06-0.09,0.09-0.14c0.01-0.01,0.01-0.03,0.02-0.05
			c0.07-0.15,0.12-0.31,0.16-0.47c0.02-0.06,0.04-0.11,0.05-0.16c0-0.01,0-0.01,0-0.02c0.05-0.22,0.07-0.45,0.07-0.69v-8.68
			C716.18,144.44,716.15,144.67,716.1,144.89z"/>
		<path fill="#666455" d="M668.51,200.56c0.04-0.16,0.09-0.32,0.16-0.48c0.03-0.06,0.07-0.12,0.1-0.18c0.08-0.15,0.17-0.3,0.27-0.44
			c0.05-0.07,0.11-0.14,0.17-0.2c0.1-0.11,0.2-0.21,0.3-0.31c0.07-0.06,0.14-0.12,0.21-0.17c0.12-0.09,0.24-0.16,0.37-0.24
			c0.08-0.04,0.16-0.09,0.24-0.13c0.15-0.07,0.3-0.12,0.45-0.16c0.08-0.02,0.15-0.05,0.23-0.07c0.24-0.05,0.48-0.08,0.74-0.08h34.08
			c0.25,0,0.5-0.03,0.74-0.08c0.08-0.02,0.15-0.05,0.23-0.07c0.16-0.05,0.31-0.1,0.45-0.16c0.08-0.04,0.16-0.08,0.24-0.13
			c0.13-0.07,0.25-0.15,0.37-0.24c0.07-0.06,0.14-0.11,0.21-0.17c0.11-0.1,0.21-0.2,0.3-0.31c0.04-0.04,0.08-0.08,0.12-0.12
			c0.02-0.03,0.03-0.06,0.05-0.08c0.1-0.14,0.19-0.28,0.27-0.44c0.03-0.05,0.06-0.09,0.09-0.14c0.01-0.01,0.01-0.03,0.02-0.04
			c0.07-0.15,0.12-0.31,0.16-0.48c0.01-0.05,0.04-0.1,0.05-0.16c0-0.01,0-0.01,0-0.02c0.05-0.22,0.07-0.45,0.07-0.69v-8.68
			c0,0.24-0.03,0.47-0.07,0.69c-0.01,0.06-0.04,0.12-0.06,0.18c-0.04,0.16-0.09,0.32-0.16,0.48c-0.03,0.06-0.07,0.12-0.1,0.18
			c-0.08,0.15-0.17,0.3-0.27,0.44c-0.05,0.07-0.11,0.14-0.17,0.2c-0.1,0.11-0.2,0.21-0.3,0.31c-0.07,0.06-0.14,0.12-0.21,0.17
			c-0.12,0.09-0.24,0.16-0.37,0.24c-0.08,0.04-0.16,0.09-0.24,0.13c-0.15,0.07-0.3,0.12-0.45,0.16c-0.08,0.02-0.15,0.05-0.23,0.07
			c-0.24,0.05-0.48,0.08-0.74,0.08h-34.08c-0.25,0-0.5,0.03-0.74,0.08c-0.08,0.02-0.15,0.05-0.23,0.07
			c-0.16,0.05-0.31,0.1-0.45,0.16c-0.08,0.04-0.16,0.08-0.24,0.13c-0.13,0.07-0.25,0.15-0.37,0.23c-0.07,0.06-0.15,0.11-0.21,0.17
			c-0.11,0.1-0.21,0.2-0.3,0.31c-0.04,0.04-0.08,0.08-0.12,0.12c-0.02,0.03-0.03,0.06-0.05,0.08c-0.1,0.14-0.19,0.28-0.27,0.44
			c-0.03,0.05-0.06,0.09-0.09,0.14c-0.01,0.01-0.01,0.03-0.02,0.04c-0.07,0.15-0.12,0.31-0.16,0.48c-0.01,0.05-0.04,0.1-0.05,0.16
			c0,0.01,0,0.01,0,0.02c-0.05,0.22-0.07,0.45-0.07,0.69v8.68c0-0.24,0.03-0.47,0.07-0.69
			C668.47,200.68,668.49,200.62,668.51,200.56z"/>
		<path fill="#666455" d="M716.05,229.76c-0.04,0.16-0.09,0.32-0.16,0.48c-0.03,0.06-0.07,0.12-0.1,0.18
			c-0.08,0.15-0.17,0.3-0.27,0.44c-0.05,0.07-0.11,0.14-0.17,0.2c-0.1,0.11-0.2,0.21-0.3,0.31c-0.07,0.06-0.14,0.12-0.21,0.17
			c-0.12,0.09-0.24,0.16-0.37,0.24c-0.08,0.04-0.16,0.09-0.24,0.13c-0.15,0.07-0.3,0.12-0.46,0.16c-0.08,0.02-0.15,0.05-0.23,0.07
			c-0.24,0.05-0.49,0.08-0.74,0.08h-68.11c-1.86,0-3.38-1.49-3.38-3.32v8.68c0,1.83,1.51,3.32,3.38,3.32h68.11
			c0.26,0,0.5-0.03,0.74-0.08c0.08-0.02,0.15-0.05,0.23-0.07c0.16-0.05,0.31-0.1,0.46-0.16c0.08-0.04,0.16-0.08,0.24-0.13
			c0.13-0.07,0.25-0.15,0.37-0.24c0.07-0.06,0.14-0.11,0.21-0.17c0.11-0.1,0.21-0.2,0.31-0.31c0.04-0.04,0.08-0.08,0.12-0.12
			c0.02-0.03,0.03-0.06,0.05-0.08c0.1-0.14,0.19-0.28,0.27-0.44c0.03-0.05,0.06-0.09,0.09-0.14c0.01-0.01,0.01-0.03,0.01-0.04
			c0.07-0.15,0.12-0.31,0.16-0.48c0.01-0.05,0.04-0.1,0.05-0.16c0-0.01,0-0.01,0-0.02c0.05-0.22,0.07-0.45,0.07-0.69v-8.68
			c0,0.24-0.03,0.47-0.07,0.69C716.09,229.65,716.06,229.7,716.05,229.76z"/>
	</g>
	<g>
		<path fill="#D7751E" d="M94.42,126.77c24.44,0,37.58,17.05,37.58,34.88c0,17.82-13.14,34.89-37.58,34.89H81.34
			c-1.92,0-3.47,1.52-3.47,3.41v31.87c0,1.88-1.55,3.4-3.46,3.4H54.26c-1.91,0-3.46-1.52-3.46-3.4V130.17c0-1.88,1.55-3.4,3.46-3.4
			H94.42z M93.19,172.62c7.43,0,11.75-5.34,11.75-10.97c0-5.64-4.33-10.96-11.75-10.96H81.34c-1.92,0-3.47,1.52-3.47,3.41v15.11
			c0,1.88,1.55,3.41,3.47,3.41H93.19"/>
	</g>
	<g>
		<path fill="#CB4B7A" d="M232.69,231.07c1,1.89-0.4,4.15-2.57,4.15h-24.83c-1.11,0-2.12-0.63-2.6-1.62l-17.93-37.12
			c-0.48-0.99-1.49-1.62-2.6-1.62h-4.42c-1.59,0-2.89,1.28-2.89,2.85v34.68c0,1.57-1.29,2.84-2.88,2.84h-21.3
			c-1.59,0-2.88-1.27-2.88-2.84V129.61c0-1.57,1.29-2.84,2.88-2.84h40.73c24.44,0,37.59,17.05,37.59,34.88
			c0,13.45-7.69,22.36-15.61,27.07c-1.29,0.77-1.73,2.4-1.04,3.72L232.69,231.07z M190.17,172.62c7.42,0,11.75-5.34,11.75-10.97
			c0-5.64-4.33-10.96-11.75-10.96h-12.43c-1.59,0-2.89,1.27-2.89,2.85v16.25c0,1.57,1.3,2.85,2.89,2.85H190.17"/>
	</g>
	<g>
		<path fill="#72B9DB" d="M316.08,136.81c11.3,11.12,11.3,24.98,11.3,43.26c0,18.28,0,32.14-11.3,43.26
			c-7.89,7.76-17.17,11.88-30.63,11.88c-13.46,0-22.73-4.11-30.63-11.88c-11.29-11.12-11.29-24.99-11.29-43.26
			c0-18.28,0-32.14,11.29-43.26c7.89-7.77,17.17-11.89,30.63-11.89C298.91,124.92,308.19,129.03,316.08,136.81z M296.28,206.57
			c2.48-3.2,4.02-6.7,4.02-26.5c0-19.8-1.55-23.46-4.02-26.66c-2.01-2.59-5.88-4.72-10.83-4.72c-4.95,0-8.82,2.14-10.83,4.72
			c-2.48,3.2-4.02,6.86-4.02,26.66c0,19.8,1.55,23.3,4.02,26.5c2.01,2.59,5.88,4.87,10.83,4.87
			C290.41,211.44,294.28,209.16,296.28,206.57"/>
	</g>
	<g>
		<path fill="#ACC562" d="M430.61,126.77c0.82,0,1.49,0.65,1.49,1.46v105.53c0,0.81-0.67,1.46-1.49,1.46h-21.37
			c-0.5,0-0.98-0.25-1.25-0.67l-32.09-49.63c-0.3-0.47-0.77-0.68-1.23-0.68c-0.76,0-1.5,0.56-1.5,1.47v48.05
			c0,0.81-0.67,1.46-1.48,1.46h-24.1c-0.82,0-1.48-0.66-1.48-1.46V128.23c0-0.82,0.67-1.46,1.48-1.46h21.37
			c0.51,0,0.98,0.25,1.26,0.67l32.08,49.63c0.3,0.47,0.77,0.68,1.24,0.68c0.76,0,1.5-0.56,1.5-1.47v-48.05
			c0-0.82,0.67-1.46,1.48-1.46H430.61z"/>
	</g>
	<g>
		<path fill="#DFA316" d="M523.35,136.81c11.3,11.12,11.3,24.98,11.3,43.26c0,18.28,0,32.14-11.3,43.26
			c-7.88,7.76-17.16,11.88-30.63,11.88c-13.46,0-22.73-4.11-30.62-11.88c-11.3-11.12-11.3-24.99-11.3-43.26
			c0-18.28,0-32.14,11.3-43.26c7.88-7.77,17.16-11.89,30.62-11.89C506.19,124.92,515.47,129.03,523.35,136.81z M503.56,206.57
			c2.48-3.2,4.01-6.7,4.01-26.5c0-19.8-1.54-23.46-4.01-26.66c-2.02-2.59-5.89-4.72-10.84-4.72c-4.94,0-8.81,2.14-10.83,4.72
			c-2.48,3.2-4.01,6.86-4.01,26.66c0,19.8,1.54,23.3,4.01,26.5c2.02,2.59,5.89,4.87,10.83,4.87
			C497.68,211.44,501.55,209.16,503.56,206.57"/>
	</g>
	<g>
		<path fill="#9E9AC1" d="M623.16,126.77c1.86,0,3.37,1.48,3.37,3.31v17.12c0,1.83-1.5,3.32-3.37,3.32h-20.33
			c-1.86,0-3.37,1.48-3.37,3.31v78.06c0,1.83-1.51,3.31-3.38,3.31h-20.33c-1.85,0-3.37-1.48-3.37-3.31v-78.06
			c0-1.83-1.51-3.31-3.37-3.31H548.7c-1.86,0-3.38-1.49-3.38-3.32v-17.12c0-1.83,1.51-3.31,3.38-3.31H623.16z"/>
	</g>
	<path fill="#9F9A83" d="M712.79,126.77c1.87,0,3.38,1.49,3.38,3.32v17.11c0,1.84-1.51,3.33-3.38,3.33h-41.04
		c-1.86,0-3.38,1.49-3.38,3.32v11.48c0,1.83,1.51,3.32,3.38,3.32h34.08c1.86,0,3.38,1.49,3.38,3.32v17.11
		c0,1.83-1.51,3.32-3.38,3.32h-34.08c-1.86,0-3.38,1.49-3.38,3.32v12.39c0,1.83,1.51,3.32,3.38,3.32h41.04
		c1.87,0,3.38,1.49,3.38,3.32v17.11c0,1.83-1.51,3.32-3.38,3.32h-68.11c-1.86,0-3.38-1.49-3.38-3.32v-101.8
		c0-1.83,1.51-3.32,3.38-3.32H712.79z"/>
</g>
<path fill-rule="evenodd" clip-rule="evenodd" fill="#FFD733" d="M595.26,60.07c0.2,5.01-6.38,2.58-8.39,7.23
	c10.16,0.55,17.41-15.85,28.58-9.42c-8.26,10.5-16.96,18.42-25.79,25.64c0.48,15.82-16.52,17.79-24.84,27.41
	c-3.77-5.34,6.51-11.36,3.97-18.03c-4.14-10.86-22.52,2.06-32.2-4.09c-10.97-6.99-11.53-38.14,7.42-35.33
	c0.85,0.11-3.74-6.08-3.79-6.18c-3.01-6.23,18.94-30.21,21.61-28.38c20.24,13.86,18.27,31.55,19.31,48.71
	c4.2-4.93,0.18-11.4,4.61-14.28c3.45,2.83,0.53,6.75,0.47,10.2C589.82,65.78,591.95,59.49,595.26,60.07L595.26,60.07z"/>
<path fill-rule="evenodd" clip-rule="evenodd" fill="#FFD733" d="M464.12,81.96c-0.57,2.44,2.89,1.87,3.44,4.34
	c-5.04-0.69-7.06-9.43-13.15-7.32c3.07,5.94,6.6,10.65,10.26,15.03c-1.73,7.73,6.44,10.3,9.62,15.81c2.36-2.27-2.13-6.2-0.25-9.23
	c3.06-4.95,10.87,3.13,16.21,1.02c6.05-2.4,9.26-17.65-0.32-18.06c-0.43-0.03,2.41-2.63,2.44-2.68c2.06-2.78-6.46-16.63-7.94-15.98
	c-11.25,4.9-11.95,13.78-14.08,22.11c-1.6-2.82,0.99-5.62-0.92-7.45c-1.96,1.07-0.89,3.27-1.19,4.97
	C466.26,85.28,465.8,81.99,464.12,81.96L464.12,81.96z"/>
<path fill-rule="evenodd" clip-rule="evenodd" fill="#FFD733" d="M516.04,111.83c-0.3,1.36,1.61,1.02,1.93,2.39
	c-2.8-0.35-3.97-5.2-7.34-3.99c1.74,3.28,3.72,5.88,5.77,8.29c-0.92,4.3,3.63,5.68,5.42,8.72c1.3-1.27-1.21-3.43-0.19-5.12
	c1.67-2.76,6.05,1.68,9,0.48c3.34-1.36,5.05-9.85-0.27-10.02c-0.24-0.01,1.33-1.47,1.34-1.5c1.13-1.55-3.67-9.2-4.49-8.83
	c-6.22,2.78-6.56,7.71-7.7,12.35c-0.9-1.56,0.52-3.12-0.55-4.13c-1.08,0.6-0.48,1.82-0.64,2.76
	C517.24,113.66,516.97,111.84,516.04,111.83L516.04,111.83z"/>
</svg>
